<svg width="400" height="400" viewBox="0 0 400 400" xmlns="http://www.w3.org/2000/svg">
  <!-- Background Circle -->
  <circle cx="200" cy="200" r="190" fill="#10b981" opacity="0.1"/>
  
  <!-- Main Circle -->
  <circle cx="200" cy="200" r="160" fill="#10b981"/>
  
  <!-- White Inner Circle -->
  <circle cx="200" cy="200" r="140" fill="white"/>
  
  <!-- Circular Progress Arc (representing routine/habit tracking) -->
  <circle cx="200" cy="200" r="150" fill="none" stroke="#10b981" stroke-width="8" 
          stroke-dasharray="565 1000" stroke-linecap="round" 
          transform="rotate(-90 200 200)"/>
  
  <!-- Center: Sprouting Plant (Growth & Good Habits) -->
  <g>
    <!-- Stem -->
    <line x1="200" y1="280" x2="200" y2="180" stroke="#10b981" stroke-width="8" stroke-linecap="round"/>
    
    <!-- Left Leaf -->
    <path d="M200 220 Q170 210 160 200 Q170 190 200 200" 
          fill="#10b981" stroke="#059669" stroke-width="2"/>
    
    <!-- Right Leaf -->
    <path d="M200 200 Q230 190 240 180 Q230 170 200 180" 
          fill="#10b981" stroke="#059669" stroke-width="2"/>
    
    <!-- Top Leaves (Multiple - representing continuous growth) -->
    <ellipse cx="185" cy="170" rx="12" ry="18" fill="#10b981" opacity="0.9" transform="rotate(-30 185 170)"/>
    <ellipse cx="200" cy="160" rx="14" ry="20" fill="#059669"/>
    <ellipse cx="215" cy="170" rx="12" ry="18" fill="#10b981" opacity="0.9" transform="rotate(30 215 170)"/>
  </g>
  
  <!-- Checkmark Circle (Habit Completion) -->
  <g transform="translate(140, 100)">
    <circle cx="0" cy="0" r="28" fill="white" stroke="#10b981" stroke-width="4"/>
    <path d="M-10 0 L-3 7 L10 -8" stroke="#10b981" stroke-width="5" 
          fill="none" stroke-linecap="round" stroke-linejoin="round"/>
  </g>
  
  <!-- Recycling Arrows (Sustainability) -->
  <g transform="translate(260, 100)">
    <!-- Three arrows forming triangle -->
    <path d="M0 -20 L5 -5 L-5 -5 Z" fill="#10b981"/>
    <path d="M17 10 L32 15 L22 25 Z" fill="#10b981" transform="rotate(120 0 0)"/>
    <path d="M-17 10 L-2 15 L-12 25 Z" fill="#10b981" transform="rotate(240 0 0)"/>
    
    <!-- Center circles -->
    <circle cx="0" cy="-13" r="3" fill="#10b981"/>
    <circle cx="11" cy="6" r="3" fill="#10b981"/>
    <circle cx="-11" cy="6" r="3" fill="#10b981"/>
  </g>
  
  <!-- Calendar/Routine Icon (Bottom Left) -->
  <g transform="translate(120, 280)">
    <rect x="-18" y="-18" width="36" height="36" rx="4" fill="white" stroke="#10b981" stroke-width="3"/>
    <line x1="-12" y1="-20" x2="-12" y2="-12" stroke="#10b981" stroke-width="3" stroke-linecap="round"/>
    <line x1="12" y1="-20" x2="12" y2="-12" stroke="#10b981" stroke-width="3" stroke-linecap="round"/>
    <line x1="-18" y1="-5" x2="18" y2="-5" stroke="#10b981" stroke-width="2"/>
    <!-- Checkmarks inside calendar -->
    <path d="M-10 2 L-7 5 L-3 0" stroke="#10b981" stroke-width="2" fill="none" stroke-linecap="round"/>
    <path d="M2 8 L5 11 L9 6" stroke="#10b981" stroke-width="2" fill="none" stroke-linecap="round"/>
  </g>
  
  <!-- Star Icon (Achievement - Bottom Right) -->
  <g transform="translate(280, 280)">
    <path d="M0 -12 L3 -3 L12 -3 L5 2 L7 12 L0 6 L-7 12 L-5 2 L-12 -3 L-3 -3 Z" 
          fill="#fbbf24" opacity="0.9"/>
  </g>
  
  <!-- Decorative small leaves around -->
  <g opacity="0.6">
    <ellipse cx="80" cy="200" rx="8" ry="14" fill="#10b981" transform="rotate(-20 80 200)"/>
    <ellipse cx="320" cy="200" rx="8" ry="14" fill="#10b981" transform="rotate(20 320 200)"/>
  </g>
</svg>
